<?xml version="1.0" encoding="utf-8"?>
<!-- Generator: Adobe Illustrator 25.0.0, SVG Export Plug-In . SVG Version: 6.00 Build 0)  -->
<svg version="1.1" id="Layer_1" xmlns="http://www.w3.org/2000/svg" xmlns:xlink="http://www.w3.org/1999/xlink" x="0px" y="0px"
	 viewBox="0 0 1024 1024" style="enable-background:new 0 0 1024 1024;" xml:space="preserve">
<style type="text/css">
	.st0{fill:#f8f8f8;}
	.st1{fill:url(#SVGID_1_);}
	.st2{fill:#1B1919;}
	.st3{fill:#5CE0E6;}
	.st4{fill:url(#SVGID_2_);}
	.st5{fill:url(#SVGID_3_);}
	.st6{fill:url(#SVGID_4_);}
	.st7{fill:#A5A1A7;}
	.st8{fill:url(#SVGID_5_);}
</style>
<desc>Created with Fabric.js 2.4.6</desc>
<rect y="0" width="1024" height="1024"/>
<g id="background-logo" transform="matrix(1.5737327188940091 0 0 1.9692307692307696 512 512)">
	<rect x="-325" y="-260" class="st0" width="650" height="520"/>
</g>
<g id="logo-logo_14_" transform="matrix(1.2123119672521037 0 0 1.2081249479942666 512 593.8341013824885)">
	<g id="logo-logo" transform="matrix(0.36 0 0 -0.36 130.59760000000006 -6.143049999999803)">
		
			<linearGradient id="SVGID_1_" gradientUnits="userSpaceOnUse" x1="-1983.2577" y1="-1472.1293" x2="-1983.184" y2="-1472.1293" gradientTransform="matrix(-3.927891e-05 -869.8315 -87.2655 4.349250e-06 -128466.2188 -1725026.5)">
			<stop  offset="0" style="stop-color:#45A0DE"/>
			<stop  offset="0.5053" style="stop-color:#344EA9"/>
			<stop  offset="1" style="stop-color:#1F204D"/>
		</linearGradient>
		<path class="st1" d="M70,46.5c3.6-9.2,7-18.7,10.2-28.3C48.6-24.6-11-61.6-75.2-73.4c0,0.5-0.1,1.2-0.1,1.7
			c-0.1,2.9-0.4,5.8-0.7,8.6c-0.1,3.3-0.4,6.6-0.8,9.8c-0.1,3.2-0.4,6.4-0.8,9.4c-0.5,6.1-1.1,12.2-1.7,18.1
			c-0.3,3.3-0.6,6.6-0.9,10c58.1,16.3,110.2,57.3,139,89.2c2-4.4,3.9-8.8,5.7-13.3C66.4,55.6,68.3,51.1,70,46.5"/>
	</g>
	<g id="logo-logo_1_" transform="matrix(0.36 0 0 -0.36 154.7976 -25.333049999999872)">
		<path class="st2" d="M2.8-6.8C1.1-2.2-0.8,2.3-2.8,6.8C-0.8,2.3,1.1-2.2,2.8-6.8"/>
	</g>
	<g id="logo-logo_2_" transform="matrix(0.36 0 0 -0.36 152.75760000000002 -30.173050000000014)">
		<path class="st2" d="M2.9-6.6C1-2.1-0.9,2.3-2.9,6.6C-0.9,2.2,1.1-2.1,2.9-6.6"/>
	</g>
	<g id="logo-logo_3_" transform="matrix(0.36 0 0 -0.36 -0.01239999999995689 4.896950000000146)">
		<path class="st3" d="M421.7,104.1c-28.8-31.9-80.8-72.9-139-89.2c0.4-3.3,0.6-6.6,0.9-10c-3.2,32.3-7.6,61.1-14.1,101.2
			c1.9-84.3,5-220.4-4.4-287.4C247.7-305.4,109.7-353.2,0-353.2c-43.8,0-92.1,7.6-135.4,24.7C13.7-254.9,163.1-116,200.2-7.2
			c10.3,29.8,14,60.9,8.4,92.3C197,149.2,138.1,192,74.4,192C47.9,192,22,184.7,0,171.1C-22,184.7-47.9,192-74.3,192
			c-63.7,0-122.7-42.8-134.1-106.9c-20.8-115.9,84.6-230.5,185.1-274.3c-76.3-62.5-220.5-143.8-241.8,7.8
			c-9.4,67-6.2,203.1-4.4,287.4c-5.9-36-10-62.8-13-91.2c-58.3,16.3-110.3,57.3-139.2,89.2c55.8,124.8,144.1,206.1,211,249.1
			c102.2-144.5,319.2-144.5,421.4,0C277.6,310.2,365.9,228.9,421.7,104.1"/>
	</g>
	<g id="logo-logo_4_" transform="matrix(0.36 0 0 -0.36 103.35760000000003 18.096949999999975)">
		<path class="st2" d="M0.3-4.3C0.1-1.4-0.1,1.5-0.3,4.3C-0.1,1.5,0.2-1.4,0.3-4.3"/>
	</g>
	<g id="logo-logo_5_" transform="matrix(0.36 0 0 -0.36 102.80760000000006 11.31695000000022)">
		<path class="st2" d="M0.4-4.7C0.3-1.5-0.2,1.7-0.4,4.7C0,1.7,0.3-1.5,0.4-4.7"/>
	</g>
	<g id="logo-logo_6_" transform="matrix(0.36 0 0 -0.36 -0.0023999999999801958 -107.61305000000007)">
		
			<linearGradient id="SVGID_2_" gradientUnits="userSpaceOnUse" x1="-1621.6854" y1="-1742.765" x2="-1620.7004" y2="-1742.765" gradientTransform="matrix(-3.927891e-05 -869.7922 -200.677 8.698500e-06 -349732.9375 -1409689.25)">
			<stop  offset="0" style="stop-color:#45A0DE"/>
			<stop  offset="0.5053" style="stop-color:#344EA9"/>
			<stop  offset="1" style="stop-color:#1F204D"/>
		</linearGradient>
		<path class="st4" d="M160.8,67.8c14.2-6.2,31.2-15.3,49.9-27.3C108.5-104-108.5-104-210.7,40.5c18.7,12.1,35.7,21.1,49.9,27.3
			c10.3-13.7,68-79.9,160.8-79.9C94.2-12.1,155.7,61.2,160.8,67.8"/>
	</g>
	<g id="logo-logo_7_" transform="matrix(0.36 0 0 -0.36 -0.002399999999965985 5.396950000000146)">
		
			<linearGradient id="SVGID_3_" gradientUnits="userSpaceOnUse" x1="-1621.72" y1="-1429.2545" x2="-1620.7305" y2="-1429.2545" gradientTransform="matrix(-3.927891e-05 -869.8882 -169.8439 8.698500e-06 -242750.1875 -1409530.875)">
			<stop  offset="0" style="stop-color:#F7970F"/>
			<stop  offset="0.6704" style="stop-color:#EE2B21"/>
			<stop  offset="0.7661" style="stop-color:#EE2B21"/>
			<stop  offset="1" style="stop-color:#ED0F93"/>
		</linearGradient>
		<path class="st5" d="M160.4,77.9C175.3-5.6,94-105.5,0-144.5c-94,39-175.2,138.9-160.4,222.4c6.8,37.8,42.8,66.7,86.1,66.7
			c31.5,0,59.1-15.3,74.3-38.1c15.3,22.8,42.9,38.1,74.4,38.1C117.7,144.5,153.6,115.7,160.4,77.9"/>
	</g>
	<g id="logo-logo_8_" transform="matrix(0.36 0 0 -0.36 -130.57240000000002 -6.143049999999818)">
		
			<linearGradient id="SVGID_4_" gradientUnits="userSpaceOnUse" x1="-1258.9911" y1="-1463.8123" x2="-1258.0061" y2="-1463.8123" gradientTransform="matrix(-3.927891e-05 -869.8315 -87.2655 4.349250e-06 -127740.4062 -1093988)">
			<stop  offset="0" style="stop-color:#45A0DE"/>
			<stop  offset="0.5053" style="stop-color:#344EA9"/>
			<stop  offset="1" style="stop-color:#1F204D"/>
		</linearGradient>
		<path class="st6" d="M80.3-15.8c0-0.4-0.1-0.8-0.1-1.2c-0.2-2.9-0.7-5.9-0.9-8.8c-0.7-5.9-1.2-12-1.7-18.1c-0.4-3-0.7-6.2-0.8-9.4
			c-0.4-3.2-0.7-6.5-0.8-9.8c-0.3-3.3-0.5-6.8-0.8-10.4C10.9-61.6-48.7-24.6-80.3,18.2c2.4,7.2,4.8,14.1,7.4,21
			c1.7,4.9,3.7,9.7,5.6,14.3c1.6,3.9,3.2,7.7,4.8,11.5c1.2,2.8,2.5,5.6,3.7,8.4C-30,41.5,22,0.5,80.3-15.8"/>
	</g>
	<g id="logo-logo_9_" transform="matrix(0.36 0 0 -0.36 -101.8823999999999 1.546950000000229)">
		<path class="st2" d="M0.5,4.4C0.1,1.5-0.2-1.5-0.5-4.4C-0.2-1.5,0.2,1.5,0.5,4.4"/>
	</g>
	<g id="logo-logo_10_" transform="matrix(0.36 0 0 -0.36 -102.81239999999993 11.31695000000022)">
		<path class="st2" d="M0.4,4.7c-0.2-3-0.7-6.2-0.8-9.4C-0.3-1.5,0,1.7,0.4,4.7"/>
	</g>
	<g id="logo-logo_11_" transform="matrix(0.36 0 0 -0.36 -103.38239999999996 18.4069499999999)">
		<path class="st2" d="M0.4,5.2C0.1,1.7-0.1-1.7-0.4-5.2C-0.1-1.6,0.1,1.9,0.4,5.2"/>
	</g>
	<g id="logo-logo_12_" transform="matrix(0.36 0 0 -0.36 -152.4124 -31.06304999999988)">
		<path class="st2" d="M1.9,4.2C0.7,1.4-0.6-1.4-1.9-4.2C-0.6-1.4,0.5,1.4,1.9,4.2"/>
	</g>
	<g id="logo-logo_13_" transform="matrix(0.36 0 0 -0.36 -155.80239999999998 -22.813049999999894)">
		<path class="st7" d="M2.8,7.2C0.9,2.5-1.1-2.3-2.8-7.2C-1.1-2.4,0.8,2.5,2.8,7.2"/>
	</g>
</g>
<g transform="matrix(1.5737327188940091 0 0 1.5737327188940091 512 332.59447004608296)">
	
		<linearGradient id="SVGID_5_" gradientUnits="userSpaceOnUse" x1="-225.0702" y1="511.0166" x2="-225.0702" y2="433.0166" gradientTransform="matrix(1.5737 0 0 -1.5737 354.2003 783.8485)">
		<stop  offset="0" style="stop-color:#17EAD9"/>
		<stop  offset="1" style="stop-color:#6078EA"/>
	</linearGradient>
	<path class="st8" d="M-220.6-4.5h15.9l-4.2,4.1h-11.7v5.5h9.7c1.3,0,2.5,0.5,3.4,1.4c0.9,0.9,1.4,2.1,1.4,3.4l0,0v4.8
		c0,1.3-0.5,2.5-1.4,3.4c-0.9,0.9-2.1,1.4-3.4,1.4l0,0h-14.5v-4.1h14.5V9.3h-9.7c-1.3,0-2.5-0.5-3.4-1.4c-0.9-0.9-1.4-2.1-1.4-3.4
		l0,0V0.3c0-1.3,0.5-2.5,1.4-3.4C-223.1-4-222-4.5-220.6-4.5L-220.6-4.5z M-172.7,0.3v14.5c0,1.3-0.5,2.5-1.4,3.4
		c-0.9,0.9-2.1,1.4-3.4,1.4l0,0H-192v-4.1l-4.8,4.8v-35.9l4.8-4.8V-1l3.5-3.4h11c1.3,0,2.5,0.5,3.4,1.4
		C-173.1-2.1-172.7-1-172.7,0.3L-172.7,0.3z M-192,15.5h14.5V-0.3H-192V15.5z M-157.5-19h15.9l-4.2,4.1h-11.7v13.1l2.8-2.8h12.4
		l-4.2,4.1h-11v20h-4.8v-33.8c0-1.3,0.5-2.5,1.4-3.4C-160-18.5-158.8-19-157.5-19L-157.5-19z M-69.5,0.3v19.3h-4.8v-20h-13.1v20
		h-4.8v-20h-13.1v20h-4.8V-4.5h4.8V-1l3.5-3.4h9.7c2.8,0,4.4,1.2,4.8,3.5l0,0l3.5-3.5h9.7c1.3,0,2.5,0.5,3.4,1.4
		C-70-2.1-69.5-1-69.5,0.3L-69.5,0.3z M-35.7,15.5v4.1H-55c-1.3,0-2.5-0.5-3.4-1.4c-0.9-0.9-1.4-2.1-1.4-3.4l0,0V0.3
		c0-1.3,0.5-2.5,1.4-3.4c0.9-0.9,2.1-1.4,3.4-1.4l0,0h14.5c1.3,0,2.5,0.5,3.4,1.4c0.9,0.9,1.4,2.1,1.4,3.4l0,0v4.8l-4.8,4.8h-13.8
		l4.1-4.1h9.7v-6.2H-55v15.9H-35.7z M-8.8,0.3v4.8h-4.8v-5.5h-9.7v20h-4.8V-4.5h4.8V-1l3.4-3.4h6.2c1.3,0,2.5,0.5,3.4,1.4
		C-9.3-2.1-8.8-1-8.8,0.3L-8.8,0.3z M3.6-4.5h15.9l-4.2,4.1H3.6v15.9h14.5v4.1H3.6c-1.3,0-2.5-0.5-3.4-1.4c-0.9-0.9-1.4-2.1-1.4-3.4
		l0,0V0.3c0-1.3,0.5-2.5,1.4-3.4C1.1-4,2.3-4.5,3.6-4.5L3.6-4.5z M49.2,0.3v19.3h-4.8v-20H29.8v20H25v-35.2l4.8-4.8V-1l3.4-3.4h11
		c1.3,0,2.5,0.5,3.4,1.4C48.7-2.1,49.2-1,49.2,0.3L49.2,0.3z M81.9,0.3v19.3h-4.8v-3.5L73,19.7H62.6c-1.3,0-2.5-0.5-3.4-1.4
		c-0.9-0.9-1.4-2.1-1.4-3.4l0,0V10c0-1.3,0.5-2.5,1.4-3.4c0.9-0.9,2.1-1.4,3.4-1.4l0,0h13.8l-4.1,4.1h-9.7v6.3h14.5V-0.3H57.8
		l4.1-4.1h15.2c1.3,0,2.5,0.5,3.4,1.4C81.5-2.1,81.9-1,81.9,0.3L81.9,0.3z M115.7,0.3v19.3h-4.8v-20H96.4v20h-4.8V-4.5h4.8V-1
		l3.5-3.4h11c1.3,0,2.5,0.5,3.4,1.4C115.3-2.1,115.7-1,115.7,0.3L115.7,0.3z M149.6-20.4v40h-4.8v-3.5l-3.5,3.5h-11
		c-1.3,0-2.5-0.5-3.4-1.4c-0.9-0.9-1.4-2.1-1.4-3.4l0,0V0.3c0-1.3,0.5-2.5,1.4-3.4c0.9-0.9,2.1-1.4,3.4-1.4l0,0h14.5v-11L149.6-20.4
		z M130.2,15.5h14.5V-3.8l-3.5,3.4h-11V15.5z M164.7-14.1v5.5h-4.8v-5.5H164.7z M164.7-5.9v25.5h-4.8V-1L164.7-5.9z M178.2-4.5h15.9
		l-4.2,4.1h-11.7v5.5h9.7c1.3,0,2.5,0.5,3.4,1.4c0.9,0.9,1.4,2.1,1.4,3.4l0,0v4.8c0,1.3-0.5,2.5-1.4,3.4c-0.9,0.9-2.1,1.4-3.4,1.4
		l0,0h-14.5v-4.1h14.5V9.3h-9.7c-1.3,0-2.5-0.5-3.4-1.4c-0.9-0.9-1.4-2.1-1.4-3.4l0,0V0.3c0-1.3,0.5-2.5,1.4-3.4
		C175.7-4,176.9-4.5,178.2-4.5L178.2-4.5z M225.5,15.5v4.1h-19.3c-1.3,0-2.5-0.5-3.4-1.4c-0.9-0.9-1.4-2.1-1.4-3.4l0,0V0.3
		c0-1.3,0.5-2.5,1.4-3.4c0.9-0.9,2.1-1.4,3.4-1.4l0,0h14.5c1.3,0,2.5,0.5,3.4,1.4c0.9,0.9,1.4,2.1,1.4,3.4l0,0v4.8l-4.8,4.8h-13.8
		l4.1-4.1h9.7v-6.2h-14.5v15.9H225.5z"/>
</g>
</svg>
