<?xml version="1.0" encoding="utf-8"?>
<!-- Generator: Adobe Illustrator 25.0.0, SVG Export Plug-In . SVG Version: 6.00 Build 0)  -->
<svg version="1.1" id="Layer_1" xmlns="http://www.w3.org/2000/svg" xmlns:xlink="http://www.w3.org/1999/xlink" x="0px" y="0px"
	 viewBox="0 0 841.89 595.28" style="enable-background:new 0 0 841.89 595.28;" xml:space="preserve">
<style type="text/css">
	.Arched_x0020_Green{fill:url(#SVGID_1_);stroke:#FFFFFF;stroke-width:0.25;stroke-miterlimit:1;}
	.st0{fill:url(#SVGID_2_);}
	.st1{fill:url(#SVGID_3_);}
	.st2{fill:url(#SVGID_4_);}
	.st3{fill:url(#SVGID_5_);}
	.st4{fill:url(#SVGID_6_);}
	.st5{fill:url(#SVGID_7_);}
</style>
<linearGradient id="SVGID_1_" gradientUnits="userSpaceOnUse" x1="0" y1="595.2803" x2="0.7071" y2="594.5732">
	<stop  offset="0" style="stop-color:#1DA238"/>
	<stop  offset="0.9831" style="stop-color:#24391D"/>
</linearGradient>
<g>
	<g>
		<path d="M243.07,386.54c-9.25,0-17.69-2.81-22.12-5.76L218,366.57c8.18,5.76,16.49,8.71,25.74,8.71c9.52,0,15.82-5.36,15.82-13.27
			c0-7.37-4.56-12.33-14.88-15.68c-15.28-4.96-23.32-13.54-23.32-25.33c0-11.93,8.85-23.32,27.08-23.32
			c8.44,0,15.55,2.68,18.63,4.96l-2.55,10.72c-2.95-2.14-9.65-4.96-16.62-4.96c-8.71,0-14.07,5.36-14.07,11.66
			c0,5.63,4.83,10.19,13.81,13.27c14.88,5.09,24.93,13,24.93,27.48C272.56,376.09,262.37,386.54,243.07,386.54z"/>
		<path d="M352.58,386.81l-40.08-43.83c-6.43-6.97-13.81-15.55-19.7-22.52l-0.27,0.13c0.27,7.77,0.27,15.01,0.27,21.45v42.89h-13
			v-85.52h8.98l36.73,40.21c4.96,5.5,12.73,14.07,17.96,20.51l0.27-0.13c-0.27-6.57-0.27-13.94-0.27-20.11v-40.48h13v87.4H352.58z"
			/>
		<path d="M409.15,386.54c-22.79,0-45.31-16.76-45.31-44.5c0-27.48,22.52-44.37,45.31-44.37c22.79,0,45.3,16.89,45.3,44.37
			C454.45,369.79,431.93,386.54,409.15,386.54z M409.15,308.93c-15.82,0-32.17,11.93-32.17,33.11c0,21.18,16.35,33.24,32.17,33.24
			c15.55,0,32.17-12.06,32.17-33.24C441.32,320.86,424.69,308.93,409.15,308.93z"/>
		<path d="M539.44,386.14h-4.42l-15.95-45.71c-2.28-6.57-4.69-13.67-7.37-22.92h-0.27c-2.68,9.25-5.09,16.49-7.37,22.92
			l-15.95,45.71h-4.42l-30.29-86.73h13l13.81,39.41c2.01,5.63,4.56,12.6,6.3,19.57h0.27c1.88-6.97,4.16-13.81,6.17-19.57
			l13.67-39.41h11.13l13.81,39.41c1.87,5.5,4.15,12.6,6.03,19.57h0.27c1.74-6.84,4.42-14.21,6.3-19.57l13.81-39.41h11.93
			L539.44,386.14z"/>
		<path d="M594.4,386.54c-9.25,0-17.69-2.81-22.12-5.76l-2.95-14.21c8.18,5.76,16.49,8.71,25.74,8.71c9.52,0,15.82-5.36,15.82-13.27
			c0-7.37-4.56-12.33-14.88-15.68c-15.28-4.96-23.32-13.54-23.32-25.33c0-11.93,8.85-23.32,27.08-23.32
			c8.45,0,15.55,2.68,18.63,4.96l-2.55,10.72c-2.95-2.14-9.65-4.96-16.62-4.96c-8.71,0-14.07,5.36-14.07,11.66
			c0,5.63,4.83,10.19,13.81,13.27c14.88,5.09,24.93,13,24.93,27.48C623.89,376.09,613.7,386.54,594.4,386.54z"/>
	</g>
	<g>
		<linearGradient id="SVGID_2_" gradientUnits="userSpaceOnUse" x1="490.7456" y1="275.8723" x2="490.7456" y2="257.4525">
			<stop  offset="6.134970e-03" style="stop-color:#878787"/>
			<stop  offset="1" style="stop-color:#EDEDED"/>
		</linearGradient>
		<path class="st0" d="M473.11,257.45h83.47c0,0-21.95,18.42-54.47,18.42c-32.52,0-77.2,0-77.2,0S449.99,274.3,473.11,257.45z"/>
		<linearGradient id="SVGID_3_" gradientUnits="userSpaceOnUse" x1="492.3117" y1="272.7353" x2="492.3117" y2="232.7646">
			<stop  offset="6.134970e-03" style="stop-color:#878787"/>
			<stop  offset="1" style="stop-color:#EDEDED"/>
		</linearGradient>
		<path class="st1" d="M558.15,232.76h-83.86c0,0-21.16,28.61-47.81,39.97c0,0,31.35-9.79,49.77-27.43h70.93
			C547.18,245.31,552.66,241.78,558.15,232.76z"/>
		<linearGradient id="SVGID_4_" gradientUnits="userSpaceOnUse" x1="487.0233" y1="275.8723" x2="487.0233" y2="208.4693">
			<stop  offset="6.134970e-03" style="stop-color:#878787"/>
			<stop  offset="1" style="stop-color:#EDEDED"/>
		</linearGradient>
		<path class="st2" d="M417.47,275.87c0,0,35.66-19.4,54.86-67.4h84.25c0,0-3.14,7.45-5.88,12.15h-76.03
			C474.68,220.62,463.9,247.65,417.47,275.87z"/>
		<linearGradient id="SVGID_5_" gradientUnits="userSpaceOnUse" x1="344.1848" y1="275.8723" x2="344.1848" y2="257.4525">
			<stop  offset="6.134970e-03" style="stop-color:#878787"/>
			<stop  offset="1" style="stop-color:#EDEDED"/>
		</linearGradient>
		<path class="st3" d="M361.82,257.45h-83.47c0,0,21.95,18.42,54.47,18.42c32.52,0,77.2,0,77.2,0S384.94,274.3,361.82,257.45z"/>
		<linearGradient id="SVGID_6_" gradientUnits="userSpaceOnUse" x1="342.6187" y1="272.7353" x2="342.6187" y2="232.7646">
			<stop  offset="6.134970e-03" style="stop-color:#878787"/>
			<stop  offset="1" style="stop-color:#EDEDED"/>
		</linearGradient>
		<path class="st4" d="M276.78,232.76h83.86c0,0,21.16,28.61,47.81,39.97c0,0-31.35-9.79-49.77-27.43h-70.93
			C287.76,245.31,282.27,241.78,276.78,232.76z"/>
		<linearGradient id="SVGID_7_" gradientUnits="userSpaceOnUse" x1="347.9081" y1="275.8723" x2="347.9081" y2="208.4693">
			<stop  offset="6.134970e-03" style="stop-color:#878787"/>
			<stop  offset="1" style="stop-color:#EDEDED"/>
		</linearGradient>
		<path class="st5" d="M417.47,275.87c0,0-35.66-19.4-54.86-67.4h-84.25c0,0,3.14,7.45,5.88,12.15h76.02
			C360.25,220.62,371.03,247.65,417.47,275.87z"/>
	</g>
</g>
</svg>
