<?xml version="1.0" encoding="utf-8"?>
<!-- Generator: Adobe Illustrator 25.0.0, SVG Export Plug-In . SVG Version: 6.00 Build 0)  -->
<svg version="1.1" id="Layer_1" xmlns="http://www.w3.org/2000/svg" xmlns:xlink="http://www.w3.org/1999/xlink" x="0px" y="0px"
	 viewBox="0 0 425.2 141.7" style="enable-background:new 0 0 425.2 141.7;" xml:space="preserve">
<style type="text/css">
	.st0{fill:url(#SVGID_1_);}
	.st1{fill:url(#SVGID_2_);}
	.st2{fill:url(#SVGID_3_);}
	.st3{stroke:#000000;stroke-width:0.5;stroke-miterlimit:10;}
</style>
<linearGradient id="SVGID_1_" gradientUnits="userSpaceOnUse" x1="90.8318" y1="112.2887" x2="134.9665" y2="156.4234" gradientTransform="matrix(0.7071 0.7071 -0.7071 0.7071 178.7256 -119.489)">
	<stop  offset="0" style="stop-color:#EF7D00"/>
	<stop  offset="0.7912" style="stop-color:#FFED00"/>
</linearGradient>
<path class="st0" d="M121.3,50.7c3.1,3.1,7.1,4.6,11.1,4.6v0c4,0,8,1.5,11,4.6c3,3,4.6,7,4.6,11c0,4,1.5,8.1,4.6,11.1
	c3,3,7,4.6,11,4.6c4,0,8-1.5,11-4.6c3.1-3.1,4.6-7.1,4.6-11.1l0,0c0-4,1.5-8,4.6-11c3-3,7-4.6,11-4.6c4,0,8.1-1.5,11.1-4.6
	c6.1-6.1,6.1-16,0-22c-6.1-6.1-16-6.1-22,0c-3.1,3.1-4.6,7.3-4.6,11.4h0c-0.1,3.9-1.6,7.8-4.6,10.7c-3.1,3.1-7.1,4.6-11.1,4.6l0,0
	c-0.1,0-0.2,0-0.3,0c0,0,0,0,0,0v0c-3.9-0.1-7.8-1.6-10.7-4.6c-3.1-3.1-4.6-7.1-4.6-11.1l0,0c0-4-1.5-8-4.6-11c-6.1-6.1-16-6.1-22,0
	C115.2,34.8,115.2,44.7,121.3,50.7z"/>
<linearGradient id="SVGID_2_" gradientUnits="userSpaceOnUse" x1="112.9679" y1="134.4476" x2="157.1021" y2="178.5818" gradientTransform="matrix(0.7071 0.7071 -0.7071 0.7071 178.7256 -119.489)">
	<stop  offset="0.2363" style="stop-color:#E6007E"/>
	<stop  offset="1" style="stop-color:#952269"/>
</linearGradient>
<path class="st1" d="M205.8,91.3c-3.1-3.1-7.1-4.6-11.1-4.6l0,0c-4,0-8-1.5-11-4.6c-3-3-4.6-7-4.6-11c0-4-1.5-8.1-4.6-11.1
	c-3-3-7-4.6-11-4.6c-4,0-8,1.5-11,4.6c-3.1,3.1-4.6,7.1-4.6,11.1h0c0,4-1.5,8-4.6,11c-3,3-7,4.6-11,4.6c-4,0-8.1,1.5-11.1,4.6
	c-6.1,6.1-6.1,16,0,22c6.1,6.1,16,6.1,22,0c3.1-3.1,4.6-7.3,4.5-11.4h0c0.1-3.9,1.6-7.8,4.6-10.7c3.1-3.1,7.1-4.6,11.1-4.6v0
	c0.1,0,0.2,0,0.3,0c0,0,0,0,0,0v0c3.9,0.1,7.8,1.6,10.7,4.6c3.1,3.1,4.6,7.1,4.6,11.1h0c0,4,1.5,8,4.6,11c6.1,6.1,16,6.1,22,0
	C211.9,107.2,211.9,97.4,205.8,91.3z"/>
<linearGradient id="SVGID_3_" gradientUnits="userSpaceOnUse" x1="163.5454" y1="55.4585" x2="163.5454" y2="86.5528">
	<stop  offset="0" style="stop-color:#E47B09"/>
	<stop  offset="1" style="stop-color:#FFED00"/>
</linearGradient>
<path class="st2" d="M179.1,71.2c0-4-1.5-8.1-4.6-11.1c-3-3-7-4.6-11-4.6c-4,0-8,1.5-11,4.6c-3,3-4.5,6.9-4.5,10.8c0,0,0,0,0,0.1
	c0,4,1.5,8.1,4.6,11.1c3,3,7,4.6,11,4.6c4,0,8-1.5,11-4.6C177.6,79,179.1,75.1,179.1,71.2C179.1,71.2,179.1,71.2,179.1,71.2z"/>
<g>
	<path d="M202.4,59.9h5.1v21.5h-5l-0.3-3.1c-1.2,2.5-4.6,3.8-7,3.8c-6.4,0-11.1-3.9-11.1-11.4c0-7.4,4.9-11.3,11.2-11.3
		c2.9,0,5.6,1.4,6.8,3.5L202.4,59.9z M189.5,70.6c0,4.1,2.8,6.5,6.4,6.5c8.4,0,8.4-13,0-13C192.3,64.1,189.5,66.5,189.5,70.6z"/>
	<path d="M233.3,50.9v30.5h-5l-0.3-3c-1.7,2.6-4.3,3.4-6.9,3.4c-6.3,0-11.1-4.2-11.1-11.3c0-7.4,4.7-11.3,11-11.3
		c2.3,0,5.8,1.2,7.1,3.4V50.9H233.3z M215.2,70.6c0,3.8,2.7,6.3,6.1,6.3c3.4,0,6.2-2.4,6.2-6.3c0-3.8-2.9-6.3-6.2-6.3
		C217.9,64.3,215.2,66.7,215.2,70.6z"/>
	<path d="M259.1,59.9l-9.2,21.6h-5.8L235,59.9h5.8l3,7.1L247,76l3.3-9l3-7.2H259.1z"/>
	<path d="M277.6,59.9h5.1v21.5h-5l-0.3-3.1c-1.2,2.5-4.6,3.8-7,3.8c-6.4,0-11.1-3.9-11.1-11.4c0-7.4,4.9-11.3,11.2-11.3
		c2.9,0,5.6,1.4,6.8,3.5L277.6,59.9z M264.7,70.6c0,4.1,2.8,6.5,6.4,6.5c8.4,0,8.4-13,0-13C267.5,64.1,264.7,66.5,264.7,70.6z"/>
	<path d="M302,81.4V70.1c0-3.3-1.8-5.8-5.2-5.8c-3.3,0-5.5,2.7-5.5,6v11H286V59.9h4.8l0.3,2.9c2.2-2.1,4.4-3.2,7.1-3.2
		c5.1,0,9.1,3.8,9.1,10.6v11.3H302z"/>
	<path d="M317.4,53.8v6.1h5.9v4.6h-6v9.3c0,2.1,1.1,3.1,2.8,3.1c0.8,0,1.8-0.3,2.6-0.7l1.5,4.5c-1.5,0.6-2.8,0.9-4.4,0.9
		c-4.7,0.2-7.7-2.5-7.7-7.9v-9.3h-4v-4.6h4v-5.5L317.4,53.8z"/>
	<path d="M343.2,59.9h5.1v21.5h-5l-0.3-3.1c-1.2,2.5-4.6,3.8-7,3.8c-6.4,0-11.1-3.9-11.1-11.4c0-7.4,4.9-11.3,11.2-11.3
		c2.9,0,5.6,1.4,6.8,3.5L343.2,59.9z M330.3,70.6c0,4.1,2.8,6.5,6.4,6.5c8.4,0,8.4-13,0-13C333.2,64.1,330.3,66.5,330.3,70.6z"/>
	<path d="M368.6,57.7l3.9,3l-2.4,3.1c1.7,1.9,2.3,4,2.3,6.4c0,2.7-1,6.4-4.5,8c3.6,1.8,4.5,4.4,4.5,7.1c0,5.9-4.5,9.6-10.8,9.6
		s-10.9-3.8-10.9-9.6h5.3c0,2.8,2.6,4.6,5.6,4.6s5.5-1.7,5.5-4.6c0-3-2.8-4.3-5.5-4.3c-6.7,0-10.9-4.1-10.9-10.8s4.9-10.9,10.9-10.9
		c1.7,0,3.4,0.2,4.9,1.2L368.6,57.7z M355.9,70.1c0,3.8,2.5,6,5.6,6c3.1,0,5.6-2.3,5.6-6c0-3.7-2.5-6.1-5.6-6.1
		C358.5,64,355.9,66.4,355.9,70.1z"/>
	<path d="M379.3,72.5c0.3,2.7,2.7,4.6,6.4,4.6c2,0,4.5-0.7,5.8-2l3.4,3.4c-2.3,2.4-6,3.5-9.2,3.5c-7.4,0-11.8-4.6-11.8-11.5
		c0-6.5,4.5-11.3,11.4-11.3c7.2,0,11.7,4.4,10.9,13.3H379.3z M391,68.1c-0.3-2.8-2.5-4.2-5.6-4.2c-2.9,0-5.2,1.4-6,4.2H391z"/>
</g>
<g>
	<path class="st3" d="M28.7,74.6c1.5,1.6,3.9,2.9,6.9,2.9c2.5,0,3.8-1.2,3.8-2.4c0-1.6-1.9-2.2-4.4-2.8c-3.5-0.8-8.1-1.8-8.1-6.6
		c0-3.6,3.1-6.5,8.2-6.5c3.4,0,6.3,1,8.4,3l-2.6,3.4c-1.8-1.6-4.1-2.4-6.2-2.4c-2.1,0-3.2,0.9-3.2,2.2c0,1.5,1.8,1.9,4.3,2.5
		c3.6,0.8,8.1,1.9,8.1,6.7c0,4-2.8,6.9-8.7,6.9c-4.2,0-7.1-1.4-9.2-3.4L28.7,74.6z"/>
	<path class="st3" d="M51.7,66.6v14.5h-4.6V59.5h4.7l10,14v-14h4.6v21.6H62L51.7,66.6z"/>
	<path class="st3" d="M81,59.2c6.6,0,11.3,4.7,11.3,11.2S87.5,81.6,81,81.6c-6.5,0-11.3-4.7-11.3-11.2S74.5,59.2,81,59.2z M81,63.3
		c-4,0-6.6,3-6.6,7.1c0,4,2.6,7.1,6.6,7.1s6.6-3.1,6.6-7.1C87.6,66.3,85,63.3,81,63.3z"/>
	<path class="st3" d="M107.7,66.3l-3.8,14.9H99l-6.2-21.6H98l3.8,15.6l4.1-15.6h3.6l4.1,15.6l3.8-15.6h5.2l-6.2,21.6h-4.9
		L107.7,66.3z"/>
	<path class="st3" d="M125.7,74.6c1.5,1.6,3.9,2.9,6.9,2.9c2.5,0,3.8-1.2,3.8-2.4c0-1.6-1.9-2.2-4.4-2.8c-3.5-0.8-8.1-1.8-8.1-6.6
		c0-3.6,3.1-6.5,8.2-6.5c3.4,0,6.3,1,8.4,3l-2.6,3.4c-1.8-1.6-4.1-2.4-6.2-2.4c-2.1,0-3.2,0.9-3.2,2.2c0,1.5,1.8,1.9,4.3,2.5
		c3.6,0.8,8.1,1.9,8.1,6.7c0,4-2.8,6.9-8.7,6.9c-4.2,0-7.1-1.4-9.2-3.4L125.7,74.6z"/>
</g>
</svg>
