<?xml version="1.0" encoding="utf-8"?>
<!-- Generator: Adobe Illustrator 25.0.0, SVG Export Plug-In . SVG Version: 6.00 Build 0)  -->
<svg version="1.1" id="Layer_1" xmlns="http://www.w3.org/2000/svg" xmlns:xlink="http://www.w3.org/1999/xlink" x="0px" y="0px"
	 viewBox="0 0 157.2 70.5" style="enable-background:new 0 0 157.2 70.5;" xml:space="preserve">
<style type="text/css">
	.st0{fill:#FCC01D;}
	.st1{fill:#404050;}
</style>
<g>
	<path class="st0" d="M14,37.9c-0.3,0-0.6,0.3-0.6,0.6v2.8c0,0.3,0.3,0.6,0.6,0.6h3.1v-3.9H14z"/>
	<path class="st0" d="M21,34.6c0-0.3-0.3-0.6-0.6-0.6h-2.8c-0.3,0-0.6,0.3-0.6,0.6v3.3H21V34.6z"/>
	<path class="st0" d="M17.1,44.8c0,0.3,0.3,0.6,0.6,0.6h2.8c0.3,0,0.6-0.3,0.6-0.6v-3h-3.9V44.8z"/>
	<path class="st0" d="M24.2,37.9H21v3.9h3.1c0.3,0,0.6-0.3,0.6-0.6v-2.8C24.7,38.1,24.5,37.9,24.2,37.9z"/>
</g>
<g>
	<path class="st1" d="M81.2,24.9h5.1c1.1,0,2.1,0.2,3,0.5c0.9,0.3,1.7,0.8,2.3,1.4c0.7,0.6,1.2,1.4,1.5,2.2c0.4,0.9,0.6,1.9,0.6,3
		c0,1.1-0.2,2-0.5,2.9c-0.3,0.9-0.8,1.6-1.4,2.3c-0.6,0.6-1.4,1.1-2.3,1.5c-0.9,0.3-2,0.5-3.2,0.5h-5.1V24.9z M86.2,38.1
		c1,0,1.9-0.1,2.7-0.4c0.8-0.3,1.4-0.7,2-1.2c0.5-0.5,0.9-1.2,1.2-1.9c0.3-0.7,0.4-1.6,0.4-2.5c0-0.9-0.1-1.7-0.4-2.4
		c-0.3-0.7-0.6-1.4-1.2-1.9c-0.5-0.5-1.2-1-1.9-1.3c-0.8-0.3-1.7-0.5-2.7-0.5h-3.8v12.1H86.2z"/>
	<path class="st1" d="M95.5,25.3c0-0.2,0.1-0.4,0.3-0.6c0.2-0.2,0.4-0.3,0.7-0.3c0.3,0,0.5,0.1,0.7,0.3c0.2,0.2,0.3,0.4,0.3,0.6
		c0,0.2-0.1,0.5-0.3,0.6c-0.2,0.2-0.4,0.2-0.7,0.2c-0.3,0-0.5-0.1-0.7-0.3C95.6,25.7,95.5,25.5,95.5,25.3z M95.8,28.6H97v10.7h-1.2
		V28.6z"/>
	<path class="st1" d="M99.4,33.9c0-0.8,0.1-1.5,0.4-2.2c0.3-0.7,0.7-1.3,1.2-1.8c0.5-0.5,1.1-0.9,1.8-1.2c0.7-0.3,1.4-0.4,2.3-0.4
		c0.5,0,1,0.1,1.5,0.2c0.5,0.1,0.9,0.3,1.3,0.5c0.4,0.2,0.8,0.5,1.1,0.8c0.3,0.3,0.6,0.6,0.8,1l0.1-2.2h1v9.3c0,0.4,0,0.8-0.1,1.3
		c-0.1,0.4-0.2,0.9-0.4,1.3c-0.2,0.4-0.4,0.8-0.7,1.2c-0.3,0.4-0.6,0.7-1,1c-0.4,0.3-0.9,0.5-1.4,0.7c-0.6,0.2-1.2,0.3-1.9,0.3
		c-0.9,0-1.6-0.1-2.3-0.4c-0.7-0.2-1.2-0.5-1.7-0.9c-0.5-0.4-0.8-0.8-1.1-1.3c-0.3-0.5-0.4-0.9-0.5-1.4h1.2c0.1,0.4,0.3,0.7,0.5,1
		c0.2,0.3,0.5,0.7,0.9,0.9c0.4,0.3,0.8,0.5,1.3,0.7c0.5,0.2,1.1,0.3,1.7,0.3c0.6,0,1.2-0.1,1.6-0.2s0.8-0.3,1.2-0.6
		c0.3-0.2,0.6-0.5,0.8-0.8c0.2-0.3,0.4-0.6,0.5-1c0.1-0.3,0.2-0.7,0.2-1c0-0.3,0.1-0.6,0.1-0.9v-1c-0.2,0.4-0.5,0.7-0.8,1
		c-0.3,0.3-0.7,0.6-1.1,0.8c-0.4,0.2-0.8,0.4-1.3,0.5c-0.5,0.1-1,0.2-1.5,0.2c-0.8,0-1.5-0.1-2.2-0.4c-0.7-0.3-1.3-0.7-1.8-1.2
		c-0.5-0.5-0.9-1.1-1.2-1.8C99.6,35.4,99.4,34.7,99.4,33.9z M100.6,33.9c0,0.6,0.1,1.2,0.4,1.8c0.2,0.6,0.6,1,1,1.4
		c0.4,0.4,0.9,0.7,1.5,1c0.6,0.2,1.2,0.3,1.8,0.3c0.6,0,1.2-0.1,1.8-0.3c0.6-0.2,1-0.5,1.5-1c0.4-0.4,0.7-0.9,1-1.4
		c0.2-0.6,0.4-1.2,0.4-1.8c0-0.6-0.1-1.2-0.4-1.8c-0.2-0.6-0.6-1-1-1.4c-0.4-0.4-0.9-0.7-1.5-1c-0.6-0.2-1.1-0.3-1.8-0.3
		c-0.6,0-1.2,0.1-1.8,0.3c-0.6,0.2-1,0.5-1.4,1c-0.4,0.4-0.7,0.9-1,1.4C100.7,32.7,100.6,33.2,100.6,33.9z"/>
	<path class="st1" d="M113.6,25.3c0-0.2,0.1-0.4,0.3-0.6c0.2-0.2,0.4-0.3,0.7-0.3c0.3,0,0.5,0.1,0.7,0.3c0.2,0.2,0.3,0.4,0.3,0.6
		c0,0.2-0.1,0.5-0.3,0.6c-0.2,0.2-0.4,0.2-0.7,0.2c-0.3,0-0.5-0.1-0.7-0.3C113.7,25.7,113.6,25.5,113.6,25.3z M113.9,28.6h1.2v10.7
		h-1.2V28.6z"/>
	<path class="st1" d="M119.1,25.4l0.9,0v3.2h4v1.1h-4v5.6c0,0.6,0.1,1.1,0.2,1.5c0.1,0.4,0.3,0.7,0.6,1c0.2,0.2,0.5,0.4,0.8,0.5
		c0.3,0.1,0.6,0.1,1,0.1h1.9l0,1h-2c-0.5,0-1-0.1-1.5-0.2c-0.4-0.1-0.8-0.4-1.2-0.7c-0.3-0.3-0.6-0.8-0.8-1.3
		c-0.2-0.5-0.3-1.2-0.3-2v-5.6h-2v-1l1.9-0.2L119.1,25.4z"/>
	<path class="st1" d="M125.8,33.9c0-0.8,0.1-1.5,0.4-2.2c0.3-0.7,0.7-1.3,1.2-1.8c0.5-0.5,1.1-0.9,1.8-1.2c0.7-0.3,1.4-0.4,2.3-0.4
		c0.5,0,1,0.1,1.5,0.2c0.5,0.1,0.9,0.3,1.3,0.5c0.4,0.2,0.8,0.5,1.1,0.8c0.3,0.3,0.6,0.6,0.8,1l0.1-2.2h1.1v10.7h-1.1l-0.1-2.2
		c-0.2,0.4-0.5,0.7-0.8,1c-0.3,0.3-0.7,0.6-1.1,0.8c-0.4,0.2-0.8,0.4-1.3,0.5c-0.5,0.1-1,0.2-1.5,0.2c-0.8,0-1.6-0.1-2.3-0.4
		c-0.7-0.3-1.3-0.7-1.8-1.2s-0.9-1.1-1.2-1.8C125.9,35.4,125.8,34.7,125.8,33.9z M127,33.9c0,0.6,0.1,1.2,0.4,1.8
		c0.2,0.6,0.6,1,1,1.4c0.4,0.4,0.9,0.7,1.5,1c0.6,0.2,1.1,0.3,1.8,0.3c0.6,0,1.2-0.1,1.8-0.3c0.6-0.2,1-0.5,1.5-1
		c0.4-0.4,0.7-0.9,1-1.4c0.2-0.6,0.4-1.2,0.4-1.8c0-0.6-0.1-1.2-0.4-1.8c-0.2-0.6-0.6-1-1-1.4c-0.4-0.4-0.9-0.7-1.5-1
		c-0.6-0.2-1.1-0.3-1.8-0.3c-0.6,0-1.2,0.1-1.8,0.3c-0.6,0.2-1,0.5-1.5,1c-0.4,0.4-0.7,0.9-1,1.4C127.1,32.7,127,33.2,127,33.9z"/>
	<path class="st1" d="M140.3,24.4h1.2v14.8h-1.2V24.4z"/>
</g>
<g>
	<path class="st1" d="M30,28.8h-2.9c0-1.3-1.1-2.3-2.9-2.3c-1.5,0-2.9,0.6-2.9,1.7c0,1,1,1.4,3.3,1.9c3.6,0.7,5.8,1.6,5.8,4.7
		c0,2.9-2.4,4.7-6.2,4.7c-2.9,0-6.2-1.6-6.2-5.2H21c0,1.8,1.8,2.6,3.3,2.6c1.6,0,3.4-0.6,3.4-2c0-1-0.8-1.5-3.6-2.1
		s-5.6-1.4-5.6-4.6c0-2.6,2.3-4.4,5.8-4.4C28.2,23.9,30,26.4,30,28.8z"/>
	<path class="st1" d="M41.4,39.3h-2.9v-6.5c0-0.7-0.2-2.2-2.1-2.2c-1.3,0-2.2,1-2.2,2.2v6.5h-2.9V28.1h2.7v1.1
		c0.7-0.8,1.7-1.4,2.9-1.4c2.6,0,4.4,2,4.4,4.9V39.3z"/>
	<path class="st1" d="M53.5,33.7c0,3.3-2.5,5.8-5.6,5.8c-3.1,0-5.6-2.5-5.6-5.8c0-3.3,2.5-5.9,5.6-5.9
		C50.9,27.9,53.5,30.4,53.5,33.7z M50.6,33.8c0-1.9-1.2-3.3-2.8-3.3c-1.5,0-2.8,1.3-2.8,3.3c0,1.9,1.2,3.2,2.8,3.2
		C49.3,37,50.6,35.7,50.6,33.8z"/>
	<path class="st1" d="M66.3,39.3h-2.9l-2-7.4l-2,7.4h-3l-3.5-11.2h3l2,7.8l2-7.8h2.9l2,7.8l2-7.8h3L66.3,39.3z"/>
	<path class="st1" d="M74.6,39.6c-2.8,0-4.9-1.5-5.3-3.9h2.9c0.4,1,1.5,1.3,2.4,1.3c1.1,0,2-0.3,2-1c0-0.6-0.4-0.9-2.3-1.2
		c-2-0.3-4.7-0.8-4.7-3.3c0-1.8,1.5-3.6,4.8-3.6c2.6,0,4.5,1.4,4.8,3.5h-3c-0.2-0.5-0.8-0.9-1.9-0.9c-1.3,0-1.9,0.5-1.9,0.9
		c0,0.6,0.8,0.8,2.2,1c2.8,0.5,4.8,1.1,4.8,3.5C79.5,38,77.4,39.6,74.6,39.6z"/>
</g>
</svg>
