<?xml version="1.0" encoding="utf-8"?>
<!-- Generator: Adobe Illustrator 25.0.0, SVG Export Plug-In . SVG Version: 6.00 Build 0)  -->
<svg version="1.1" id="Layer_1" xmlns="http://www.w3.org/2000/svg" xmlns:xlink="http://www.w3.org/1999/xlink" x="0px" y="0px"
	 viewBox="0 0 4552.44 4552.44" style="enable-background:new 0 0 4552.44 4552.44;" xml:space="preserve">
<style type="text/css">
	.st0{fill:#DADADA;}
	.st1{fill:none;stroke:#C6C6C6;stroke-width:9.825;stroke-miterlimit:10;}
	.st2{fill:none;stroke:#C6C6C6;stroke-width:10.158;stroke-miterlimit:10;}
	.st3{fill:none;stroke:#878787;stroke-width:14.535;stroke-miterlimit:10;}
</style>
<polygon points="633.83,1601.98 648.32,1607.3 628.33,1661.85 784.08,1718.94 777.96,1735.64 622.2,1678.55 602.21,1733.1 
	587.73,1727.77 "/>
<polygon points="715.84,1430.48 723.88,1414.62 885.66,1496.54 877.62,1512.41 799.86,1473.04 755.42,1560.82 833.16,1600.19 
	825.12,1616.08 663.34,1534.13 671.38,1518.24 741.65,1553.85 786.11,1466.07 "/>
<polygon points="922.87,1434.78 771.84,1334.4 829.78,1247.21 842.65,1255.77 794.55,1328.14 847.08,1363.01 889.95,1298.52 
	902.58,1306.92 859.73,1371.43 919.87,1411.42 971.73,1333.4 984.58,1341.96 "/>
<g>
	<path d="M1139.59,921.87c16.34,10.37,33.47,21.1,51.34,32.19c17.89,11.08,35.97,22,54.24,32.76
		c18.27,10.75,36.32,21.24,54.14,31.47c17.82,10.23,34.71,19.79,50.67,28.69c-8.33-17.39-17.84-35.87-28.55-55.5
		c-10.75-19.6-22.03-39.87-33.88-60.8c-11.85-20.89-24.05-42.06-36.59-63.52c-12.56-21.43-25.07-42.46-37.54-63.04l50.53-44.08
		c33.4,56.62,64.16,112.23,92.23,166.9c28.09,54.64,53.12,108.43,75.12,161.31l-47.15,41.11
		c-65.68-34.83-134.95-75.03-207.75-120.56c17.75,39.73,34.02,78.03,48.79,114.83c14.75,36.85,28.74,72.77,41.91,107.81
		l-46.72,40.75c-49.62-28.76-99.56-60.83-149.75-96.2c-50.19-35.37-101.05-73.46-152.58-114.28l52.48-45.77
		c18.46,14.92,37.47,30.04,57.02,45.37c19.53,15.37,38.92,30.28,58.14,44.72c19.24,14.49,38.04,28.33,56.38,41.49
		c18.36,13.2,35.59,25.1,51.65,35.71c-6.59-17.51-13.75-35.78-21.46-54.81c-7.71-19.05-15.72-38.3-24.03-57.76
		c-8.28-19.43-16.72-38.66-25.29-57.64c-8.59-18.98-17.01-37.16-25.33-54.55L1139.59,921.87z"/>
	<polygon points="1606.52,597.63 1665.97,571.44 1809.96,898.5 1750.52,924.7 1686.71,779.8 1544.65,842.34 1608.45,987.21 
		1548.98,1013.4 1404.99,686.33 1464.46,660.17 1522,790.91 1664.07,728.37 	"/>
	<polygon points="1848.72,516.95 1912.09,502.63 1990.85,851.2 1927.48,865.5 	"/>
	<polygon points="2322.54,460.18 2325.63,516.3 2215.96,522.34 2232.5,823.01 2167.13,826.62 2150.57,525.94 2040.88,531.98 
		2037.79,475.86 	"/>
	<polygon points="2409.14,824.11 2466.45,471.4 2692.96,508.2 2684.11,562.65 2521.73,536.27 2507.6,623.31 2652.14,646.79 
		2643.48,700.24 2498.89,676.76 2482.12,780.08 2656.71,808.46 2647.86,862.91 	"/>
	<path d="M2953.98,932.83c20.84,10.61,37.78,14.82,50.88,12.61c13.06-2.21,22.91-9.73,29.45-22.6c3.9-7.64,5.64-15.06,5.26-22.22
		c-0.43-7.14-2.47-14.46-6.18-21.93c-3.69-7.49-8.87-15.34-15.49-23.55c-6.64-8.18-14.51-16.96-23.67-26.24
		c-9.02-9.59-17.41-19.39-25.24-29.38c-7.85-9.94-13.87-20.46-18.1-31.5c-4.23-11.04-6.21-22.65-5.95-34.87
		c0.24-12.2,3.88-25.22,10.92-38.99c14.65-28.78,36.13-46.29,64.4-52.55c28.26-6.23,59.54-0.62,93.82,16.89
		c19.91,10.16,36.49,21.39,49.67,33.71c13.2,12.32,22.91,23.34,29.17,33.09L3151.09,763c-7.45-11.09-16.58-21.36-27.43-30.76
		c-10.82-9.37-22.84-17.44-36.02-24.15c-15.6-7.97-29.43-10.94-41.44-8.97c-12.01,1.97-20.98,8.8-26.9,20.41
		c-3.59,7.07-5.23,13.85-4.9,20.39c0.36,6.54,2.17,13.15,5.5,19.89c3.33,6.71,7.75,13.58,13.23,20.62
		c5.47,7.04,11.7,14.25,18.72,21.69c12.2,13.18,22.74,25.6,31.66,37.25c8.9,11.68,15.42,23.5,19.58,35.44
		c4.09,11.94,5.64,24.29,4.54,37.04c-1.12,12.75-5.47,26.64-13.13,41.65c-14.68,28.78-36.23,45.89-64.63,51.26
		c-28.4,5.4-62.21-1.93-101.41-21.91c-13.18-6.71-24.76-13.68-34.78-20.89c-10.01-7.23-18.6-14.23-25.76-20.96
		c-7.18-6.73-13.18-12.99-17.96-18.7c-4.81-5.76-8.49-10.61-11.09-14.63l41.13-38.66c5.92,8.8,14.77,19.1,26.5,30.88
		C2918.25,911.71,2934.07,922.67,2953.98,932.83"/>
	<polygon points="3531.75,958.55 3496.38,1002.22 3411.05,933.07 3221.43,1167.03 3170.55,1125.78 3360.17,891.82 3274.81,822.69 
		3310.21,779.01 	"/>
	<path d="M3481.57,1449.25c7.97-12.58,15.7-25.19,23.22-37.82c7.47-12.63,15.34-25.33,23.62-38.13l-94.44-117.75
		c-14.25,5.23-28.4,10.28-42.39,15.08c-13.99,4.81-27.86,9.66-41.61,14.49l-42.25-52.71c38.13-13.44,73.58-25.53,106.31-36.37
		c32.71-10.82,63.97-20.79,93.7-29.88c29.71-9.09,58.31-17.39,85.78-24.88c27.47-7.49,54.9-14.51,82.26-21.05l38.8,48.39
		c-12.32,25.31-25.12,50.55-38.42,75.77c-13.3,25.17-27.59,51.29-42.92,78.36c-15.32,27.02-31.78,55.43-49.36,85.16
		c-17.56,29.74-37.06,61.78-58.43,96.11L3481.57,1449.25z M3640.5,1186.68c-19.17,5.23-42.11,12.06-68.84,20.48
		c-26.71,8.45-55.45,17.94-86.21,28.5l73.55,91.71c16.98-27.71,32.57-53.88,46.79-78.48
		C3619.99,1224.29,3631.55,1203.54,3640.5,1186.68"/>
	<path d="M3921.4,1498.16c21.53,46.84,29.43,86.64,23.65,119.35c-5.78,32.73-26.31,57.21-61.59,73.44
		c-44.05,20.25-83.88,12.23-119.44-24c-4.45,9.23-10.11,19.96-16.99,32.21c-6.85,12.23-14.51,25-22.93,38.35
		c-8.44,13.32-17.34,26.5-26.69,39.51c-9.33,12.97-18.82,25.1-28.4,36.33l-30.35-66.06c8.49-11.11,16.89-22.72,25.12-34.83
		c8.25-12.13,16.15-24.17,23.69-36.16c7.54-11.97,14.51-23.57,20.86-34.85c6.38-11.23,11.94-21.55,16.72-30.92
		c-2.33-4.24-4.21-7.9-5.64-11.02c-1.43-3.14-2.81-6.11-4.09-8.92l-13.13-28.57l-122.77,56.4l-27.12-59.04l320.03-147.04
		c9.71,12.92,18.86,27.26,27.4,42.99C3908.29,1471.06,3915.5,1485.34,3921.4,1498.16 M3872.28,1525.82
		c-5.76-12.49-11.51-23.84-17.34-34.02l-104.96,48.24l11.82,25.76c6.61,14.34,13.2,26.67,19.79,36.85
		c6.59,10.23,13.61,18.08,21.03,23.55c7.45,5.47,15.46,8.52,24.05,9.11c8.59,0.6,18.2-1.57,28.83-6.45
		c9.99-4.59,17.56-10.35,22.72-17.25c5.14-6.92,8.14-14.82,8.97-23.72c0.81-8.87-0.14-18.58-2.86-29.02
		C3881.6,1548.4,3877.58,1537.39,3872.28,1525.82"/>
	<path d="M819.44,2561.96c9.23,45.2,7.47,80.67-5.23,106.31c-12.73,25.64-34.92,41.7-66.58,48.15c-18.15,3.69-34.26,3.64-48.34-0.24
		c-14.08-3.85-26.26-10.99-36.54-21.36c-10.3-10.42-18.98-23.93-26.07-40.58c-7.09-16.65-12.85-35.92-17.27-57.73l-8.85-43.37
		l-123.65,25.19l-6.38-31.38l313.7-63.92c5.33,10.44,10.21,22.96,14.63,37.61C813.28,2535.27,816.8,2549.04,819.44,2561.96
		 M792.51,2568.91c-2.4-11.7-4.78-21.53-7.23-29.52c-2.43-7.99-4.54-14.84-6.33-20.55l-141.18,28.76l8.09,39.65
		c3.45,16.91,7.56,32.02,12.35,45.29c4.81,13.27,10.87,24.22,18.22,32.8c7.37,8.59,16.34,14.54,26.95,17.82
		c10.59,3.28,23.27,3.43,38.04,0.41c14.13-2.88,25.24-8.11,33.3-15.68c8.09-7.57,13.84-16.58,17.29-27.07
		c3.5-10.47,5.07-21.91,4.81-34.35C796.5,2594.03,795.05,2581.49,792.51,2568.91"/>
	<path d="M856.35,2991.85c-22.6,9.37-42.92,10.85-60.9,4.38c-17.96-6.47-33.88-18.22-47.74-35.23c-3.88,7.04-9.21,16.32-15.99,27.81
		c-6.78,11.47-14.44,23.57-22.91,36.25c-8.52,12.73-17.56,25.5-27.19,38.32c-9.61,12.85-19.13,24.26-28.57,34.3l-13.18-31.76
		c9.06-10.89,17.91-22.29,26.57-34.21c8.64-11.92,16.87-23.84,24.67-35.73c7.8-11.92,14.89-23.29,21.27-34.09
		c6.4-10.8,11.99-20.24,16.77-28.36c-4.71-8.92-9.02-18.03-12.87-27.31l-20.2-48.7l-121.75,50.55l-12.27-29.57l295.67-122.77
		c7.21,9.23,14.39,20.6,21.55,34.14c7.14,13.51,13.18,26.19,18.13,38.09c17.2,41.44,22.34,75.93,15.41,103.46
		C905.9,2958.93,887.08,2979.1,856.35,2991.85 M873.19,2842.1c-4.57-11.01-8.94-20.48-13.11-28.45
		c-4.16-7.97-7.66-14.58-10.51-19.84l-128.29,53.26l16.98,40.87c5.64,13.63,11.66,26.24,18.03,37.89
		c6.38,11.63,13.63,21,21.89,28.12c8.23,7.11,17.6,11.54,28.17,13.27c10.59,1.74,23.12-0.43,37.61-6.45
		c13.34-5.52,23.26-12.7,29.78-21.55c6.57-8.82,10.61-18.48,12.18-29c1.59-10.51,1.07-21.6-1.57-33.26
		C881.71,2865.34,878,2853.69,873.19,2842.1"/>
	
		<rect x="693.73" y="3103.93" transform="matrix(0.8598 -0.5106 0.5106 0.8598 -1472.8687 874.8182)" width="326.27" height="32.01"/>
	<path d="M940.05,3508.16c4.57-11.61,9.68-25.67,15.32-42.15c5.61-16.51,11.3-34.35,17.03-53.57c5.76-19.22,11.63-39.2,17.63-59.88
		c5.99-20.7,11.63-41.06,16.94-61.04c5.31-20.01,9.94-39.13,13.94-57.38c4-18.25,7.3-34.23,9.85-47.93l-212.03,174.85l-20.05-24.34
		l251.73-207.58l16.15,19.62c-3.59,23.74-8.59,50.12-15.01,79.15c-6.45,29-13.44,58.04-21.01,87.09
		c-7.59,29.05-15.46,56.83-23.67,83.35c-8.21,26.53-15.87,49.03-22.96,67.56l204.87-168.97l20.08,24.36l-251.73,207.56
		L940.05,3508.16z"/>
	<polygon points="1432.29,3509.6 1414.73,3531.13 1333.73,3465.07 1145.04,3696.34 1120.25,3676.09 1308.92,3444.8 1227.97,3378.74 
		1245.5,3357.23 	"/>
	
		<rect x="1248.88" y="3669.39" transform="matrix(0.5259 -0.8505 0.8505 0.5259 -2465.1572 2948.1831)" width="326.26" height="32.02"/>
	<path d="M1665.39,3990.74c-1.36-12.39-3.35-27.24-6-44.46c-2.66-17.22-5.9-35.66-9.73-55.36c-3.83-19.7-7.9-40.11-12.18-61.23
		c-4.31-21.1-8.73-41.75-13.27-61.92c-4.59-20.2-9.32-39.28-14.25-57.31c-4.92-18.03-9.42-33.71-13.49-47.05l-106.79,253.25
		l-29.05-12.25l126.75-300.66l23.41,9.87c7.83,22.72,15.63,48.43,23.38,77.12c7.78,28.69,15.01,57.64,21.79,86.9
		c6.75,29.24,12.65,57.52,17.7,84.81c5.02,27.33,8.68,50.81,10.99,70.49l103.15-244.67l29.07,12.25l-126.77,300.64L1665.39,3990.74z
		"/>
	<path d="M2065.54,3929.08l31.47,5.83l-26.48,143.06c-6.33,1.38-18.39,2.4-36.23,3.12c-17.84,0.67-39.28-1.31-64.28-5.92
		c-20.98-3.88-39.75-11.2-56.26-21.91c-16.53-10.71-30.07-24.31-40.58-40.8c-10.52-16.46-17.53-35.8-21.1-58.02
		c-3.54-22.2-2.83-46.7,2.14-73.55c4.97-26.86,13.39-49.96,25.29-69.3c11.87-19.36,25.95-34.78,42.3-46.29
		c16.34-11.49,34.28-19.25,53.88-23.29c19.58-4.04,39.73-4.14,60.4-0.33c23.76,4.43,42.87,10.59,57.38,18.53
		c14.46,7.95,24.83,14.89,31.07,20.84l-15.61,24.88c-7.49-7.78-18.29-14.96-32.4-21.55c-14.11-6.59-29.78-11.49-47.08-14.7
		c-16.03-2.97-31.71-2.83-46.98,0.38c-15.3,3.24-29.28,9.78-41.94,19.55c-12.65,9.78-23.6,22.77-32.8,38.92
		c-9.21,16.18-15.96,35.66-20.17,58.5c-3.93,21.31-5.02,40.99-3.26,59.02c1.76,18.06,6.52,34.09,14.3,48.12
		c7.78,14.06,18.48,25.69,32.09,34.92c13.61,9.23,30.16,15.63,49.6,19.25c15.72,2.9,29.09,4.5,40.06,4.78
		c10.94,0.29,18.41-0.02,22.41-0.88L2065.54,3929.08z"/>
	<path d="M2491.29,4090.26c-20.93,2-40.75,0.09-59.42-5.66c-18.7-5.78-35.35-15.25-50.03-28.35
		c-14.65-13.08-26.81-29.83-36.47-50.17c-9.68-20.39-15.82-44.15-18.39-71.32c-2.62-27.19-0.76-51.72,5.47-73.6
		c6.28-21.89,15.6-40.66,27.97-56.36c12.37-15.68,27.29-28.07,44.68-37.16c17.41-9.04,35.99-14.54,55.66-16.41
		c12.18-1.17,23.34-1.45,33.5-0.83c10.16,0.6,19.1,1.71,26.81,3.36c7.73,1.62,14.34,3.35,19.89,5.19c5.52,1.83,9.8,3.57,12.8,5.16
		l-7.66,28.62c-8.28-3.92-18.63-7.59-31.09-10.97c-12.46-3.35-27.59-4.21-45.41-2.52c-20.32,1.95-37.71,7.09-52.19,15.39
		c-14.51,8.35-26.31,19.25-35.45,32.71c-9.11,13.51-15.42,29.07-18.94,46.74c-3.5,17.67-4.26,36.99-2.26,57.92
		c2.07,21.55,6.49,40.77,13.3,57.62c6.8,16.84,15.79,30.88,26.98,42.1c11.16,11.23,24.34,19.44,39.46,24.6
		c15.18,5.19,32.12,6.88,50.86,5.07c20.62-1.95,37.71-5.54,51.22-10.8c13.56-5.23,23.69-10.23,30.5-14.96l11.51,26.33
		c-2.04,1.76-5.61,3.92-10.73,6.45c-5.11,2.55-11.66,5.31-19.55,8.28c-7.92,2.95-17.1,5.64-27.62,8.06
		C2516.21,4087.17,2504.42,4089,2491.29,4090.26"/>
	<path d="M2932.13,3806.2c8.54,26.62,12.16,51.34,10.9,74.15c-1.26,22.81-6.35,43.15-15.3,60.99c-8.95,17.89-21.15,33.07-36.56,45.6
		c-15.44,12.51-33.02,21.93-52.74,28.26c-19.72,6.3-39.51,8.87-59.35,7.64c-19.84-1.21-38.58-6.49-56.24-15.84
		c-17.68-9.33-33.64-22.91-47.93-40.75s-25.67-40.06-34.21-66.66c-8.52-26.6-12.13-51.24-10.82-73.91
		c1.31-22.65,6.45-42.92,15.39-60.78c8.94-17.86,21.12-33.07,36.56-45.6c15.42-12.51,33.02-21.93,52.74-28.24
		c19.72-6.35,39.51-8.87,59.35-7.66s38.58,6.52,56.24,15.84c17.65,9.35,33.59,22.84,47.84,40.51
		C2912.24,3757.48,2923.61,3779.61,2932.13,3806.2 M2899.85,3816.55c-6.68-20.91-15.39-38.82-26.1-53.67
		c-10.7-14.87-22.86-26.55-36.44-35.04c-13.58-8.52-28.31-13.61-44.17-15.27c-15.87-1.67-32.5,0.29-49.81,5.83
		c-17.34,5.54-31.97,13.61-43.91,24.22c-11.94,10.56-20.98,23.27-27.07,38.09c-6.14,14.82-9.23,31.4-9.3,49.69
		c-0.07,18.32,3.26,37.94,9.94,58.85c6.71,20.93,15.39,38.8,26.12,53.67c10.68,14.87,22.84,26.57,36.44,35.06
		c13.58,8.49,28.33,13.63,44.25,15.49c15.92,1.81,32.52-0.05,49.88-5.61c17.32-5.54,31.95-13.7,43.84-24.41
		c11.87-10.73,20.89-23.5,27-38.35c6.14-14.82,9.23-31.38,9.3-49.67C2909.89,3857.09,2906.56,3837.48,2899.85,3816.55"/>
	<path d="M3216.49,3780.85c-6.85-4.92-16.22-11.28-28.02-19.03c-11.82-7.73-24.88-16.08-39.16-25.05
		c-14.27-8.95-28.95-18.22-43.98-27.81c-15.06-9.61-29.28-18.51-42.72-26.74c-13.42-8.18-25.26-15.37-35.49-21.5
		c-10.25-6.14-17.6-10.37-22.1-12.75c17.58,35.33,37.71,73.01,60.35,113.09c22.67,40.11,46.72,81.97,72.22,125.63l-26.64,16.91
		c-29.4-51.6-57.12-101.29-83.19-149.04c-26.03-47.79-50.1-94.06-72.18-138.76l23.84-15.15c16.39,8.21,34.59,18.1,54.64,29.74
		c20.05,11.61,40.44,23.96,61.18,36.97c20.77,13.04,41.08,25.98,60.97,38.82c19.89,12.85,37.66,24.55,53.26,35.06
		c-2.88-18.6-5.9-39.66-9.06-63.11c-3.16-23.48-6.21-47.36-9.18-71.7c-2.97-24.31-5.42-48.03-7.42-71.1
		c-1.97-23.1-3.21-43.79-3.64-62.11l22.65-14.37c31.07,39.01,62.71,80.48,94.84,124.37c32.16,43.91,65.3,90.13,99.48,138.71
		l-27.43,17.44c-28.67-41.65-56.33-81.26-82.95-118.82c-26.62-37.56-52.17-71.82-76.65-102.77c0.24,5.07,0.95,13.54,2.16,25.41
		c1.21,11.87,2.71,25.62,4.45,41.22c1.74,15.63,3.76,32.3,6.07,49.98c2.28,17.67,4.47,34.9,6.54,51.6
		c2.07,16.72,4.09,32.07,6.09,46.05c2,13.96,3.76,25.12,5.33,33.42L3216.49,3780.85z"/>
	<path d="M3330.13,3333.38c32.42-32.83,62.83-51.12,91.21-54.86c28.38-3.71,54.07,5.76,77.07,28.48
		c13.2,13.01,22.1,26.45,26.74,40.3c4.64,13.84,5.52,27.9,2.59,42.25c-2.9,14.34-9.3,29.09-19.2,44.22
		c-9.9,15.18-22.67,30.66-38.32,46.53l-31.09,31.5l89.78,88.64l-22.48,22.79l-227.82-224.94c5.71-10.23,13.39-21.27,23.1-33.09
		C3311.39,3353.36,3320.86,3342.75,3330.13,3333.38 M3350.9,3351.88c-8.4,8.47-15.22,15.99-20.51,22.43
		c-5.28,6.47-9.8,12.06-13.56,16.72l102.53,101.22l28.45-28.81c12.13-12.28,22.38-24.1,30.74-35.47c8.37-11.37,14.06-22.5,17.1-33.4
		c3.04-10.9,2.97-21.65-0.21-32.3c-3.16-10.63-10.13-21.24-20.84-31.8c-10.25-10.16-20.82-16.49-31.59-18.96
		c-10.78-2.47-21.46-2.24-32.12,0.71c-10.63,2.95-21.03,8.02-31.19,15.18C3369.53,3334.56,3359.94,3342.73,3350.9,3351.88"/>
	<path d="M3848.59,3204.68c-16.75-3.85-32.71-7.78-47.91-11.75c-15.18-3.97-29.9-7.95-44.18-11.89l-89.52,131.88
		c8.59,12.42,17.56,24.93,26.88,37.59c9.3,12.61,18.94,25.79,28.86,39.58l-18.77,27.64c-21.15-29.33-40.75-56.78-58.85-82.38
		c-18.08-25.57-34.97-50.15-50.67-73.6c-15.7-23.46-30.59-46.29-44.7-68.49c-14.11-22.2-27.97-44.89-41.56-68.04l15.84-23.36
		c26.45,4.04,52.6,8.61,78.38,13.63c25.81,5.04,52.53,10.49,80.14,16.39c27.59,5.9,56.64,12.58,87.07,20.05
		c30.45,7.45,63.37,15.3,98.82,23.5L3848.59,3204.68z M3545.97,3134.93c15.77,25,32.09,49.96,48.88,74.86
		c16.8,24.95,35.18,51.45,55.17,79.48l78.22-115.21c-33.52-8.21-65.04-15.42-94.56-21.7
		C3604.14,3146.13,3574.92,3140.33,3545.97,3134.93"/>
	<path d="M4003.67,2867.15c-12.4,1.5-27.19,3.73-44.34,6.66c-17.18,2.93-35.59,6.45-55.24,10.56c-19.62,4.12-39.96,8.49-61.02,13.08
		c-21.05,4.62-41.63,9.35-61.73,14.23c-20.1,4.88-39.13,9.9-57.09,15.08c-17.94,5.21-33.54,9.92-46.82,14.23l254.8,102.96
		l-11.82,29.24l-302.5-122.25l9.54-23.57c22.58-8.16,48.15-16.32,76.72-24.53c28.57-8.18,57.43-15.87,86.57-23.08
		c29.14-7.18,57.33-13.51,84.57-18.96c27.21-5.42,50.64-9.44,70.29-12.04l-246.19-99.48l11.8-29.26l302.52,122.25L4003.67,2867.15z"
		/>
	<path d="M4066.16,2622.25l-131.98-24.24c-37.71,15.84-73.89,30.12-108.62,42.82c-34.71,12.68-68.34,24.24-100.86,34.59l6.71-36.59
		c29.55-7.99,59.71-17.25,90.52-27.76c30.81-10.49,60.42-21.96,88.87-34.33c-22.31-21.05-45.98-42.04-71.03-62.95
		c-25.03-20.89-49.91-40.51-74.62-58.78l6.26-34.28c26.36,21.74,53.64,44.63,81.95,68.65c28.31,24.03,56.85,49.67,85.66,76.98
		l132.91,24.38L4066.16,2622.25z"/>
	<polygon class="st0" points="2286.14,1020.18 2286,2271.67 2571.77,1880.42 	"/>
	<polygon class="st0" points="1087.24,1887.89 2286.61,2274.45 2002.31,1879.92 	"/>
	<polygon class="st0" points="1549.84,3286 2284.27,2275.15 1816.37,2423.12 	"/>
	<polygon class="st0" points="3018.2,3282.52 2285.99,2271.67 2282.14,2762.4 	"/>
	<polygon class="st0" points="3471.72,1885.02 2283.42,2271.14 2748.91,2426.45 	"/>
	<path class="st1" d="M1026.89,2283.06c0-694.43,562.95-1257.37,1257.37-1257.37c694.43,0,1257.39,562.93,1257.39,1257.37
		c0,694.44-562.96,1257.37-1257.39,1257.37C1589.84,3540.42,1026.89,2977.49,1026.89,2283.06z"/>
	
		<ellipse transform="matrix(0.7071 -0.7071 0.7071 0.7071 -945.318 2283.9153)" class="st2" cx="2284.27" cy="2283.06" rx="482.91" ry="482.91"/>
	<line class="st1" x1="2285.66" y1="912.33" x2="2285.66" y2="3646.37"/>
	<line class="st1" x1="982.01" y1="2690.29" x2="3583.99" y2="1850.87"/>
	<line class="st1" x1="1481.72" y1="3384.14" x2="3081.4" y2="1166.93"/>
	<line class="st1" x1="3584.17" y1="2690.29" x2="982.18" y2="1850.87"/>
	<line class="st1" x1="3090.35" y1="3381.91" x2="1490.67" y2="1164.7"/>
	<polygon class="st3" points="2567.78,1879.68 3479.92,1884.27 2747.26,2421.06 3026.16,3292.98 2285.86,2765.85 1546.37,3295.6 
		1819.67,2421.06 1090.29,1886.13 2004.51,1876.28 2285.45,1018.92 	"/>
</g>
</svg>
